<?xml version="1.0" encoding="UTF-8" standalone="no"?>
<!-- Created with Inkscape (http://www.inkscape.org/) -->

<svg
   xmlns:dc="http://purl.org/dc/elements/1.1/"
   xmlns:cc="http://creativecommons.org/ns#"
   xmlns:rdf="http://www.w3.org/1999/02/22-rdf-syntax-ns#"
   xmlns:svg="http://www.w3.org/2000/svg"
   xmlns="http://www.w3.org/2000/svg"
   xmlns:sodipodi="http://sodipodi.sourceforge.net/DTD/sodipodi-0.dtd"
   xmlns:inkscape="http://www.inkscape.org/namespaces/inkscape"
   width="500"
   height="150"
   viewBox="0 0 500.00001 150"
   id="svg2"
   version="1.1"
   inkscape:version="0.91 r13725"
   sodipodi:docname="dirac.svg">
  <defs
     id="defs4" />
  <sodipodi:namedview
     id="base"
     pagecolor="#ffffff"
     bordercolor="#dedede"
     borderopacity="1"
     inkscape:pageopacity="0.0"
     inkscape:pageshadow="2"
     inkscape:zoom="1"
     inkscape:cx="368.5"
     inkscape:cy="75"
     inkscape:document-units="px"
     inkscape:current-layer="layer1"
     showgrid="false"
     inkscape:showpageshadow="false"
     borderlayer="false"
     inkscape:window-width="1600"
     inkscape:window-height="847"
     inkscape:window-x="1352"
     inkscape:window-y="-8"
     inkscape:window-maximized="1"
     showborder="false"
     units="px" />
  <metadata
     id="metadata7">
    <rdf:RDF>
      <cc:Work
         rdf:about="">
        <dc:format>image/svg+xml</dc:format>
        <dc:type
           rdf:resource="http://purl.org/dc/dcmitype/StillImage" />
        <dc:title></dc:title>
      </cc:Work>
    </rdf:RDF>
  </metadata>
  <g
     inkscape:label="Layer 1"
     inkscape:groupmode="layer"
     id="layer1"
     transform="translate(0,-902.36219)">
    <g
       id="g4856"
       transform="translate(-276.18165,297.0466)">
      <path
         transform="translate(0,308.26772)"
         id="path9487"
         d="m 438.89648,330.9375 0,15.07617 27.58204,0 c 8.17974,0 14.52287,2.2572 19.0332,6.76758 4.54856,4.4721 6.82225,10.62328 6.82226,18.45898 0,8.29445 -2.29411,14.85185 -6.88086,19.66797 -4.54856,4.81611 -10.83446,7.22461 -18.86132,7.22461 l -27.69532,0 0,15.02149 29.13086,0 c 13.26341,0 23.86796,-3.8222 31.81836,-11.4668 7.98863,-7.64461 11.98438,-17.8691 11.98438,-30.67383 0,-26.71797 -14.60029,-40.07617 -43.80274,-40.07617 l -29.13086,0 z m 79.5918,0 0,82.2168 18.51563,0 0,-82.2168 -18.51563,0 z m 25.17188,0 0,82.2207 18.51953,0 0,-31.47851 4.98828,0 c 1.14669,0 2.19482,0.24721 3.15039,0.74414 0.99381,0.45865 1.93336,1.14714 2.8125,2.06445 0.91736,0.87913 1.81227,1.94961 2.69141,3.21094 0.87912,1.26133 1.79832,2.69543 2.7539,4.30078 l 12.78906,21.1582 21.26954,0 -15.53907,-24.3125 c -0.8027,-1.26132 -1.6996,-2.54219 -2.69336,-3.84179 -0.95558,-1.33788 -1.96688,-2.57793 -3.03711,-3.72461 -1.07024,-1.14669 -2.18144,-2.14344 -3.32812,-2.98438 -1.1467,-0.87913 -2.33154,-1.50841 -3.55469,-1.89062 l 0,-0.23047 c 2.7903,-0.80275 5.3132,-1.90998 7.56836,-3.32422 2.29338,-1.41424 4.2423,-3.09556 5.84766,-5.04492 1.6054,-1.94935 2.84939,-4.12705 3.72851,-6.53516 0.87912,-2.44628 1.31641,-5.10402 1.31641,-7.9707 0,-14.907 -9.97525,-22.36133 -29.92774,-22.36133 l -29.35546,0 z m 105.5625,0 -29.92969,82.2207 20.07031,0 5.78711,-18.29297 29.24023,0 5.84766,18.29297 20.1836,0 -29.24024,-82.2207 -21.95898,0 z m 95.0039,0 c -13.26339,0 -23.86797,3.8222 -31.81836,11.4668 -7.98863,7.64469 -11.98632,17.86909 -11.98632,30.67382 0,26.71798 14.60227,40.07813 43.80468,40.07813 l 29.12696,0 0,-15.08008 -27.58008,0 c -8.17977,0 -14.52483,-2.25721 -19.03516,-6.76758 -4.54857,-4.4721 -6.82031,-10.62319 -6.82031,-18.45898 0,-8.29445 2.29215,-14.85185 6.87891,-19.66797 4.54857,-4.81611 10.83642,-7.22266 18.86328,-7.22266 l 27.69336,0 0,-15.02148 -29.12696,0 z m -182.04687,13.875 8.37109,0 c 8.60022,0 12.90039,3.59139 12.90039,10.77734 0,3.44006 -1.22559,6.3246 -3.67187,8.65625 -2.40804,2.29337 -5.59707,3.44141 -9.57227,3.44141 l -8.02734,0 0,-22.875 z m 97.30469,0.80078 0.45898,0 c 0.26757,2.86667 0.72717,5.33249 1.37695,7.39649 l 8.83008,27.63476 -21.04297,0 8.94727,-27.86328 c 0.76447,-2.36983 1.23858,-4.75996 1.42969,-7.16797 z m -251.56836,8.45899 c -0.007,-10e-4 -0.0235,0.007 -0.0508,0.0273 -0.13983,-0.0429 -0.11547,0.006 0.004,0.041 0.0296,-0.0344 0.0578,-0.0663 0.0469,-0.0684 z m -0.0469,0.0684 c -0.0275,0.0319 -0.0535,0.0639 -0.10742,0.10352 -0.21928,0.22977 -0.40943,0.60809 -0.63867,1.06836 -0.28158,0.59703 -0.51517,1.25538 -0.74414,1.96484 -0.58888,1.83528 -1.01956,3.75991 -1.45899,5.81446 -0.83733,3.93526 -2.05939,10.69 -3.05859,15.13476 -0.53851,2.39922 -1.15381,4.88439 -1.94727,7.35742 -0.31397,0.99174 -0.66852,2.00956 -1.08789,3.02735 -0.41937,1.01779 -0.90407,2.0364 -1.48437,3.02929 -0.35212,0.64312 -0.79116,1.30705 -1.3418,1.93555 -0.55063,0.6285 -1.21309,1.22142 -2.00977,1.72266 -0.59894,0.34106 -1.23962,0.56672 -1.89843,0.67383 -0.65881,0.10716 -1.33442,0.0949 -2.00196,-0.041 -0.6242,-0.14568 -1.19589,-0.35156 -1.71484,-0.5918 -0.51895,-0.24024 -0.98491,-0.51433 -1.4043,-0.79687 -0.92148,-0.59212 -1.6816,-1.17268 -2.43945,-1.67969 -0.70089,-0.44208 -1.27925,-0.82617 -1.77148,-0.92773 -0.32122,-0.0737 -0.67365,-0.0687 -0.83204,0.0703 -0.24613,0.092 -0.47481,0.33016 -0.71484,0.6582 -0.24004,0.32803 -0.4922,0.74532 -0.77734,1.19922 -0.45702,0.82432 -0.83682,1.71978 -1.17969,2.66992 -0.34287,0.95013 -0.64779,1.95322 -0.95117,2.99414 -0.57363,2.03497 -1.18671,4.15069 -1.92774,6.26758 -0.37052,1.05845 -0.77288,2.11725 -1.21875,3.16797 -0.44588,1.05072 -0.93493,2.09299 -1.47851,3.11719 -0.30949,0.59668 -0.6658,1.21023 -1.08399,1.8164 -0.41821,0.60617 -0.89792,1.20499 -1.45898,1.77344 -0.39036,0.41641 -0.86744,0.79809 -1.42383,1.11133 -0.55639,0.31324 -1.19351,0.55791 -1.90625,0.70313 -0.68588,0.0829 -1.33836,0.0513 -1.94336,-0.0742 -0.60499,-0.12554 -1.15999,-0.34506 -1.65234,-0.63672 -0.61704,-0.35399 -1.17059,-0.75428 -1.66406,-1.17774 -0.49348,-0.42345 -0.92693,-0.87076 -1.31446,-1.3164 -1.19661,-1.34189 -2.23788,-2.7678 -3.18359,-4.22657 -0.9457,-1.45878 -1.79691,-2.95008 -2.62305,-4.42187 -0.3881,-0.65711 -0.7601,-1.28475 -1.14453,-1.8418 -0.38443,-0.55705 -0.78078,-1.04362 -1.21875,-1.41797 -0.26872,-0.22453 -0.48233,-0.39742 -0.64648,-0.44921 -0.10746,-0.0353 -0.19049,-0.062 -0.20899,-0.0469 -0.0257,-0.0122 -0.1127,0.0328 -0.24023,0.0918 -0.16614,0.0807 -0.36321,0.26018 -0.60352,0.49023 -0.3249,0.31591 -0.62638,0.70117 -0.92383,1.13672 -0.29745,0.43555 -0.59068,0.92146 -0.89843,1.43555 -0.84829,1.45376 -1.61226,2.97783 -2.36719,4.55273 -0.75493,1.57491 -1.50129,3.19934 -2.3125,4.85938 -0.0568,0.11696 -0.11468,0.23453 -0.17188,0.35156 -0.92426,1.89124 -1.88556,3.7702 -2.92578,5.60937 -1.04023,1.83917 -2.16009,3.63955 -3.39648,5.375 -0.26054,0.39241 -0.57485,0.80414 -0.95899,1.21094 -0.38414,0.4068 -0.83626,0.80959 -1.36914,1.18164 -0.38697,0.26878 -0.88198,0.49321 -1.48242,0.64258 -0.53636,0.12368 -1.10804,0.1214 -1.69141,-0.0176 -0.58165,-0.16052 -1.07065,-0.41083 -1.45507,-0.7207 -0.43931,-0.35057 -0.78156,-0.71544 -1.03711,-1.07031 -0.32988,-0.45616 -0.6021,-0.91396 -0.83008,-1.35938 -0.22797,-0.44542 -0.41215,-0.88002 -0.5625,-1.29101 -0.46829,-1.22681 -0.82945,-2.45835 -1.12891,-3.67383 -0.29948,-1.21548 -0.53694,-2.41461 -0.75195,-3.57422 -0.59379,-3.13115 -1.05111,-6.26163 -1.48438,-9.30274 -0.49592,-3.47536 -0.94073,-6.76721 -1.45312,-10.1289 -0.5,-3.27511 -1.02795,-6.44444 -1.70899,-9.54688 -0.29466,-1.32647 -0.59758,-2.618 -0.94921,-3.86133 -0.35162,-1.2433 -0.75122,-2.43859 -1.23243,-3.57812 -0.37783,-0.88798 -0.7695,-1.70063 -1.24218,-2.38086 -0.39178,-0.53966 -0.75523,-0.98837 -1.13477,-1.21484 -0.3725,-0.21595 -0.65853,-0.384 -0.8418,-0.375 -0.10023,-0.0186 -0.23717,0.004 -0.33007,0.0547 -0.15618,0.053 -0.35101,0.26845 -0.59571,0.54493 -0.29261,0.35514 -0.54935,0.8242 -0.81054,1.35351 -0.32992,0.67715 -0.60635,1.40634 -0.85547,2.16797 -0.24913,0.76164 -0.47063,1.55473 -0.68555,2.36328 -0.48385,1.85106 -0.88064,3.76836 -1.26758,5.66992 -0.37272,1.83722 -0.72331,3.64836 -1.16211,5.50391 -0.18203,0.77186 -0.38227,1.55705 -0.6289,2.35156 -0.18831,0.62136 -0.4287,1.29257 -0.76953,1.98438 -0.0947,0.23781 -0.24288,0.50755 -0.45508,0.79101 -0.2122,0.28345 -0.48883,0.58086 -0.83594,0.87891 -0.29795,0.24309 -0.69613,0.42873 -1.1875,0.53516 -0.50542,0.0771 -0.9645,0.033 -1.36133,-0.11914 -0.48634,-0.22272 -0.87864,-0.47409 -1.18164,-0.72852 -0.30299,-0.25443 -0.51805,-0.51245 -0.6543,-0.74805 -0.59406,-0.79617 -1.02167,-1.60206 -1.36328,-2.33789 -0.70103,-1.46665 -1.38217,-2.84442 -2.16015,-4.11328 -0.27273,-0.42694 -0.52497,-0.82506 -0.77735,-1.17187 -0.25238,-0.3468 -0.50626,-0.64415 -0.77929,-0.86719 -0.31896,-0.20645 -0.5333,-0.39866 -0.5586,-0.31836 -0.11223,-0.0819 -0.40948,0.18666 -0.84961,0.49023 -0.42743,0.35797 -0.82882,0.77481 -1.21093,1.23438 -0.3821,0.45958 -0.74491,0.9602 -1.09961,1.48633 -0.70942,1.05226 -1.38248,2.20432 -2.08985,3.3125 -2.18184,3.49585 -3.83122,6.2377 -5.67773,9.18164 12.51914,23.02459 36.62791,37.35832 62.83594,37.36132 36.64458,-0.04 67.33149,-27.76617 71.07812,-64.21874 -0.48152,-0.47828 -0.92379,-0.98977 -1.33594,-1.5293 -0.51685,-0.67657 -0.98807,-1.39448 -1.43554,-2.13672 -1.05754,-1.73395 -1.97524,-3.54507 -2.89844,-5.49219 -1.22328,-2.57581 -4.36509,-9.73527 -5.85547,-12.77539 -0.41339,-0.83502 -0.83816,-1.63885 -1.33398,-2.32812 -0.33914,-0.44125 -0.61352,-0.80962 -0.88086,-0.95313 -0.006,-10e-4 -0.004,-0.002 -0.01,-0.004 z m 41.59961,69.19922 c -2.0174,0 -3.82563,0.44513 -5.42383,1.33594 -1.59822,0.88205 -2.85643,2.10964 -3.77344,3.68164 -0.917,1.57199 -1.37695,3.27044 -1.37695,5.0957 0,2.45408 0.80024,4.61545 2.39844,6.48438 2.07853,2.42788 4.8997,3.64258 8.46289,3.64258 2.93442,0 5.27481,-0.87441 7.02148,-2.6211 1.75539,-1.7554 2.64268,-4.1235 2.66016,-7.10156 l -8.30469,0 0,1.86133 6.14258,0 c -0.25326,1.78162 -1.06634,3.23174 -2.4375,4.34961 -1.37112,1.11788 -3.04486,1.67578 -5.02734,1.67578 -1.63312,0 -3.13668,-0.369 -4.50782,-1.11133 -1.37116,-0.75107 -2.44732,-1.77882 -3.22461,-3.08008 -0.77726,-1.31001 -1.16406,-2.69087 -1.16406,-4.14062 0,-1.4148 0.37589,-2.75319 1.12696,-4.01953 0.75109,-1.27506 1.80752,-2.28499 3.16992,-3.02735 1.37115,-0.74232 2.8114,-1.11328 4.32226,-1.11328 1.21392,0 2.45933,0.27595 3.73438,0.82617 1.28382,0.54149 2.46293,1.34169 3.53711,2.39844 l 1.49219,-1.41601 c -1.37115,-1.30129 -2.77579,-2.24494 -4.2168,-2.83008 -1.441,-0.59387 -2.9782,-0.89063 -4.61133,-0.89063 z m 37.25586,0 c -1.79907,0 -3.47177,0.45007 -5.01758,1.34961 -1.5458,0.89079 -2.77038,2.12433 -3.66992,3.70508 -0.8908,1.58073 -1.33399,3.29894 -1.33399,5.15039 0,2.77722 0.98225,5.14331 2.94727,7.09961 1.96499,1.95627 4.3766,2.93555 7.23242,2.93555 2.82088,0 5.20976,-0.98228 7.16602,-2.94727 1.96502,-1.96501 2.94726,-4.35881 2.94726,-7.17969 0,-2.84708 -0.98224,-5.24582 -2.94726,-7.19335 -1.96498,-1.94753 -4.40727,-2.91993 -7.32422,-2.91993 z m 35.73633,0 c -1.79905,0 -3.47177,0.45007 -5.01758,1.34961 -1.5458,0.89079 -2.76648,2.12433 -3.66602,3.70508 -0.89081,1.58073 -1.33789,3.29894 -1.33789,5.15039 0,2.77722 0.98224,5.14331 2.94727,7.09961 1.96501,1.95627 4.37662,2.93555 7.23242,2.93555 2.82083,0 5.20978,-0.98228 7.16602,-2.94727 1.965,-1.96501 2.94726,-4.35881 2.94726,-7.17969 0,-2.84708 -0.98226,-5.24582 -2.94726,-7.19335 -1.96499,-1.94753 -4.40729,-2.91993 -7.32422,-2.91993 z m 23.89453,0 c -2.01741,0 -3.82368,0.44513 -5.42188,1.33594 -1.59819,0.88205 -2.85643,2.10964 -3.77343,3.68164 -0.917,1.57199 -1.37696,3.27044 -1.37696,5.0957 0,2.45408 0.80024,4.61545 2.39844,6.48438 2.07857,2.42788 4.8997,3.64258 8.46289,3.64258 2.93441,0 5.2748,-0.87441 7.02149,-2.6211 1.75542,-1.7554 2.64266,-4.1235 2.66015,-7.10156 l -8.30469,0 0,1.86133 6.14258,0 c -0.25331,1.78162 -1.06646,3.23174 -2.4375,4.34961 -1.37123,1.11788 -3.04875,1.67578 -5.03125,1.67578 -1.63311,0 -3.13277,-0.369 -4.5039,-1.11133 -1.37112,-0.75107 -2.44734,-1.77882 -3.22461,-3.08008 -0.77727,-1.31001 -1.16602,-2.69087 -1.16602,-4.14062 0,-1.4148 0.3779,-2.75319 1.12891,-4.01953 0.75111,-1.27506 1.80745,-2.28499 3.16992,-3.02735 1.37113,-0.74232 2.81149,-1.11328 4.32227,-1.11328 1.21397,0 2.45737,0.27595 3.73242,0.82617 1.28381,0.54149 2.46481,1.34169 3.53906,2.39844 l 1.49219,-1.41601 c -1.3711,-1.30129 -2.77584,-2.24494 -4.2168,-2.83008 -1.44104,-0.59387 -2.98018,-0.89063 -4.61328,-0.89063 z m 74.72265,0 c -2.01743,0 -3.82561,0.44513 -5.42382,1.33594 -1.59817,0.88205 -2.85448,2.10964 -3.77149,3.68164 -0.91697,1.57199 -1.375,3.27044 -1.375,5.0957 0,2.45408 0.79831,4.61545 2.39649,6.48438 2.07858,2.42788 4.89777,3.64258 8.46093,3.64258 2.93441,0 5.27685,-0.87441 7.02344,-2.6211 1.75542,-1.7554 2.64078,-4.1235 2.65821,-7.10156 l -8.30469,0 0,1.86133 6.14258,0 c -0.25331,1.78162 -1.06245,3.23174 -2.4336,4.34961 -1.3711,1.11788 -3.04885,1.67578 -5.03125,1.67578 -1.63321,0 -3.13671,-0.369 -4.50781,-1.11133 -1.37115,-0.75107 -2.4434,-1.77882 -3.2207,-3.08008 -0.77726,-1.31001 -1.16797,-2.69087 -1.16797,-4.14062 0,-1.4148 0.37585,-2.7532 1.12695,-4.01953 0.7511,-1.27506 1.80752,-2.28499 3.16992,-3.02735 1.3711,-0.74232 2.81128,-1.11328 4.32227,-1.11328 1.21385,0 2.45933,0.27595 3.73437,0.82617 1.2838,0.54149 2.46297,1.34169 3.53711,2.39844 l 1.49414,-1.41601 c -1.37111,-1.30129 -2.77779,-2.24494 -4.21875,-2.83008 -1.44105,-0.59387 -2.97816,-0.89063 -4.61133,-0.89063 z m 37.25782,0 c -1.79907,0 -3.47181,0.45007 -5.01758,1.34961 -1.54577,0.89079 -2.76837,2.12433 -3.66797,3.70508 -0.89073,1.58073 -1.33594,3.29894 -1.33594,5.15039 0,2.77722 0.98219,5.14331 2.94727,7.09961 1.96503,1.95627 4.37471,2.93555 7.23047,2.93555 2.8209,0 5.20976,-0.98228 7.16601,-2.94727 1.96499,-1.96501 2.94727,-4.35881 2.94727,-7.17969 0,-2.84708 -0.98228,-5.24582 -2.94727,-7.19335 -1.96499,-1.94753 -4.40534,-2.91993 -7.32226,-2.91993 z m 68.34179,0 c -0.85587,0 -1.65125,0.19984 -2.38476,0.60157 -0.72494,0.393 -1.28767,0.93507 -1.68945,1.625 -0.40173,0.68993 -0.60352,1.45454 -0.60352,2.29297 0,1.05669 0.34228,2.03899 1.02344,2.94726 0.39298,0.54148 1.39304,1.4189 3,2.63281 1.59817,1.20519 2.69827,2.23592 3.30078,3.0918 0.43672,0.62005 0.6543,1.25217 0.6543,1.89844 0,0.56766 -0.14835,1.10479 -0.44532,1.61133 -0.29688,0.50653 -0.72922,0.91309 -1.29687,1.21875 -0.56768,0.29693 -1.17602,0.44531 -1.82227,0.44531 -1.51086,0 -2.84132,-1.06139 -3.99414,-3.1836 l -1.63672,0.98438 c 0.80346,1.46721 1.68082,2.5138 2.63282,3.14258 0.95192,0.62009 2.01331,0.93164 3.18359,0.93164 1.51957,0 2.8085,-0.51439 3.86523,-1.54492 1.06551,-1.03054 1.59766,-2.24522 1.59766,-3.64258 0,-0.96938 -0.30956,-1.93583 -0.92969,-2.89649 -0.62001,-0.96065 -1.76556,-2.05572 -3.43359,-3.28711 -1.40614,-1.03927 -2.23505,-1.68125 -2.48828,-1.92578 -0.46288,-0.46287 -0.78236,-0.89216 -0.95703,-1.28515 -0.17466,-0.39299 -0.25977,-0.79762 -0.25977,-1.2168 0,-0.68993 0.24143,-1.27253 0.73047,-1.74414 0.49779,-0.4716 1.13481,-0.70703 1.91211,-0.70703 0.60259,0 1.15948,0.1533 1.66601,0.45898 0.51529,0.30564 1.13452,0.93971 1.85938,1.90039 l 1.57422,-1.19336 c -0.8821,-1.20521 -1.72083,-2.0292 -2.51563,-2.47461 -0.786,-0.45413 -1.63471,-0.68164 -2.54297,-0.68164 z m 25.10157,0 c -2.97806,0 -5.45901,0.96447 -7.44141,2.89454 -1.97383,1.92133 -2.96094,4.29241 -2.96094,7.11328 0,2.68115 0.81407,4.97008 2.44727,6.86523 1.9475,2.24447 4.60747,3.36719 7.97851,3.36719 1.77296,0 3.37639,-0.33236 4.8086,-0.9961 1.44105,-0.67246 2.64089,-1.61911 3.60156,-2.84179 l -1.51758,-1.1543 c -1.81649,2.11346 -4.07671,3.16992 -6.77539,3.16992 -2.45403,0 -4.4878,-0.78542 -6.10351,-2.35742 -1.60696,-1.57201 -2.41016,-3.53353 -2.41016,-5.88281 0,-1.55453 0.35998,-2.95127 1.07617,-4.19141 0.72485,-1.24887 1.74083,-2.241 3.05078,-2.97461 1.31008,-0.74234 2.73251,-1.11328 4.26953,-1.11328 1.40614,0 2.69492,0.28585 3.86524,0.85352 1.17907,0.55893 2.18902,1.38292 3.02734,2.47461 l 1.51758,-1.16602 c -0.92572,-1.2838 -2.11076,-2.28084 -3.56055,-2.98828 -1.44971,-0.71611 -3.07392,-1.07227 -4.87304,-1.07227 z m 16.18945,0 c -0.85586,0 -1.65117,0.19984 -2.38477,0.60157 -0.72485,0.393 -1.28777,0.93507 -1.68945,1.625 -0.40173,0.68993 -0.60351,1.45454 -0.60351,2.29297 0,1.05669 0.34032,2.03899 1.02148,2.94726 0.39306,0.54148 1.39499,1.4189 3.00195,2.63281 1.59817,1.20519 2.69818,2.23592 3.30078,3.0918 0.43664,0.62005 0.6543,1.25217 0.6543,1.89844 0,0.56766 -0.14843,1.10479 -0.44531,1.61133 -0.29696,0.50653 -0.72727,0.91309 -1.29492,1.21875 -0.56768,0.29693 -1.17407,0.44531 -1.82032,0.44531 -1.51086,0 -2.84335,-1.06139 -3.99609,-3.1836 l -1.63867,0.98438 c 0.80342,1.46721 1.68089,2.5138 2.63281,3.14258 0.952,0.62009 2.01339,0.93164 3.18359,0.93164 1.51965,0 2.80851,-0.51439 3.86524,-1.54492 1.06547,-1.03054 1.59766,-2.24522 1.59766,-3.64258 0,-0.96938 -0.3116,-1.93583 -0.93164,-2.89649 -0.6201,-0.96065 -1.76354,-2.05572 -3.43165,-3.28711 -1.40606,-1.03927 -2.23505,-1.68125 -2.48828,-1.92578 -0.46288,-0.46287 -0.78041,-0.89216 -0.95507,-1.28515 -0.17467,-0.39299 -0.26368,-0.79762 -0.26368,-1.2168 0,-0.68993 0.24331,-1.27253 0.73242,-1.74414 0.4978,-0.4716 1.13872,-0.70703 1.91602,-0.70703 0.60259,0 1.15558,0.1533 1.66211,0.45898 0.51529,0.30565 1.13647,0.93971 1.86133,1.90039 l 1.57031,-1.19336 c -0.8821,-1.20521 -1.72087,-2.0292 -2.51562,-2.47461 -0.78592,-0.45413 -1.63279,-0.68164 -2.54102,-0.68164 z m -304.82422,0.48243 0,19.27148 10.96485,0 0,-1.89844 -9.04102,0 0,-7.56054 9.04102,0 0,-1.88477 -9.04102,0 0,-6.02539 9.11914,0 0,-1.90234 -11.04297,0 z m 37.71485,0 0,19.27148 9.33984,0 0,-1.85937 -7.40039,0 0,-17.41211 -1.93945,0 z m 57.64062,0 6.22266,10.0625 0,9.20898 1.89843,0 0,-9.20898 6.10547,-10.0625 -2.22851,0 -4.84571,7.9414 -4.92578,-7.9414 -2.22656,0 z m 76.25586,0 0,19.27148 10.96289,0 0,-1.89844 -9.03711,0 0,-7.56054 9.03711,0 0,-1.88477 -9.03711,0 0,-6.02539 9.11719,0 0,-1.90234 -11.04297,0 z m 37.69922,0 0,19.27148 1.92969,0 0,-8.95898 1.37304,0 c 2.39297,0 4.02508,-0.10479 4.89844,-0.31446 1.19648,-0.28819 2.13716,-0.85003 2.81836,-1.67969 0.68116,-0.83842 1.02148,-1.89785 1.02148,-3.18164 0,-1.27509 -0.35012,-2.33153 -1.04882,-3.16992 -0.69869,-0.84714 -1.59697,-1.40504 -2.69727,-1.67578 -0.76863,-0.19213 -2.25231,-0.29101 -4.45312,-0.29101 l -3.8418,0 z m 15.86523,0 0,19.27148 1.93946,0 0,-9.30078 9.79882,0 0,9.30078 1.93946,0 0,-19.27148 -1.93946,0 0,8.08398 -9.79882,0 0,-8.08398 -1.93946,0 z m 16.84766,0 6.2207,10.0625 0,9.20898 1.90235,0 0,-9.20898 6.10351,-10.0625 -2.22656,0 -4.84766,7.9414 -4.92773,-7.9414 -2.22461,0 z m 30.69141,0 0,19.27148 1.92578,0 0,-19.27148 -1.92578,0 z m -145.86719,0.69531 c -1.27505,0 -2.34132,0.36794 -3.19727,1.10156 -0.74235,0.62878 -1.11133,1.42411 -1.11133,2.38477 0,0.5502 0.14844,1.12889 0.44532,1.74023 0.30571,0.60262 0.98633,1.54329 2.04297,2.81836 -1.86893,1.47594 -3.10937,2.69662 -3.72071,3.66602 -0.60264,0.96066 -0.90234,1.92212 -0.90234,2.88281 0,1.27506 0.44809,2.34141 1.34765,3.19726 0.89952,0.84715 2.09157,1.27149 3.57618,1.27149 1.11792,0 2.17739,-0.19878 3.18164,-0.5918 1.0044,-0.39301 2.33673,-1.21701 3.99609,-2.47461 l 2.47656,2.58008 2.68555,0 c -0.48038,-0.55894 -1.05106,-1.17026 -1.71484,-1.83398 -0.83837,-0.84714 -1.48032,-1.50498 -1.92578,-1.97657 0.67253,-0.54147 1.42721,-1.18345 2.26562,-1.92578 l -1.31055,-1.38867 c -0.59384,0.53272 -1.37136,1.19847 -2.33203,2.00195 l -2.00195,-2.00195 -2.92383,-3.06641 c 1.33616,-1.13535 2.23328,-2.06616 2.6875,-2.79101 0.45405,-0.73361 0.68164,-1.42402 0.68164,-2.07031 0,-0.61133 -0.17602,-1.1851 -0.52539,-1.72657 -0.34933,-0.5502 -0.85578,-0.98937 -1.51953,-1.3125 -0.6637,-0.32313 -1.39763,-0.48437 -2.20117,-0.48437 z m -103.17774,0.70703 c 1.44974,0 2.82272,0.37095 4.11524,1.11328 1.29254,0.74234 2.29262,1.73447 3,2.97461 0.71612,1.23142 1.07226,2.61232 1.07226,4.14062 0,1.53708 -0.35614,2.9338 -1.07226,4.19141 -0.70738,1.25759 -1.69951,2.24976 -2.97461,2.97461 -1.26632,0.72487 -2.64723,1.08594 -4.14063,1.08594 -2.23574,0 -4.14684,-0.78543 -5.73633,-2.35742 -1.58073,-1.58076 -2.36914,-3.51459 -2.36914,-5.80274 0,-1.54578 0.35613,-2.94746 1.07227,-4.20508 0.71614,-1.25761 1.71321,-2.25961 2.98828,-3.00195 1.27507,-0.74233 2.62136,-1.11328 4.04492,-1.11328 z m 35.73828,0 c 1.44972,0 2.82073,0.37095 4.11329,1.11328 1.29256,0.74234 2.29256,1.73447 3,2.97461 0.7161,1.23142 1.07421,2.61232 1.07421,4.14062 0,1.53708 -0.35811,2.9338 -1.07421,4.19141 -0.70744,1.25759 -1.69761,2.24976 -2.97266,2.97461 -1.2663,0.72487 -2.64726,1.08594 -4.14063,1.08594 -2.23576,0 -4.14686,-0.78543 -5.73632,-2.35742 -1.58073,-1.58076 -2.3711,-3.51459 -2.3711,-5.80274 0,-1.54578 0.35615,-2.94746 1.07227,-4.20508 0.71615,-1.25761 1.71322,-2.25961 2.98828,-3.00195 1.27505,-0.74233 2.62333,-1.11328 4.04687,-1.11328 z m 135.875,0 c 1.44971,0 2.82083,0.37095 4.11329,1.11328 1.29254,0.74234 2.29059,1.73447 2.99804,2.97461 0.7161,1.23142 1.07617,2.61232 1.07617,4.14062 0,1.53708 -0.36007,2.9338 -1.07617,4.19141 -0.70745,1.25759 -1.69752,2.24976 -2.97265,2.97461 -1.2663,0.72487 -2.64523,1.08594 -4.13868,1.08594 -2.23571,0 -4.14886,-0.78543 -5.73828,-2.35742 -1.5808,-1.58076 -2.37109,-3.51459 -2.37109,-5.80274 0,-1.54578 0.35816,-2.94746 1.07422,-4.20508 0.71611,-1.25761 1.71129,-2.25961 2.98633,-3.00195 1.27509,-0.74233 2.62527,-1.11328 4.04882,-1.11328 z m 15.95704,0.47266 3.40429,0 c 1.30125,0 2.23514,0.11274 2.80274,0.33984 0.57635,0.22706 1.0393,0.61283 1.38867,1.1543 0.34933,0.53272 0.52344,1.1213 0.52344,1.76757 0,0.66372 -0.17411,1.2652 -0.52344,1.80664 -0.34937,0.53275 -0.83003,0.92148 -1.44141,1.16602 -0.61126,0.23581 -1.57578,0.35547 -2.89453,0.35547 l -3.25976,-0.041 0,-6.54882 z m -84.47071,0.66796 c 0.7162,0 1.28886,0.16126 1.7168,0.48438 0.43664,0.32314 0.6543,0.7089 0.6543,1.1543 0,0.38428 -0.16618,0.82447 -0.49805,1.32226 -0.47163,0.69866 -1.17487,1.40992 -2.10938,2.13477 -0.77726,-0.88205 -1.37866,-1.69321 -1.80664,-2.43555 -0.17466,-0.30566 -0.26367,-0.635 -0.26367,-0.98437 0,-0.45414 0.21473,-0.84587 0.64258,-1.17774 0.42797,-0.33187 0.98287,-0.49805 1.66406,-0.49805 z m -0.4707,7.65039 c 0.64625,0.74235 1.22997,1.38925 1.75391,1.93946 l 3.14453,3.22265 c -1.40605,1.00431 -2.62373,1.72843 -3.6543,2.17383 -0.65495,0.27945 -1.32471,0.41992 -2.00586,0.41992 -0.89952,0 -1.65917,-0.28091 -2.2793,-0.83984 -0.62001,-0.56769 -0.92773,-1.21757 -0.92773,-1.95117 0,-0.62006 0.25127,-1.29271 0.75781,-2.01758 0.50645,-0.73361 1.57782,-1.71587 3.21094,-2.94727 z"
         style="font-style:normal;font-variant:normal;font-weight:bold;font-stretch:normal;font-size:medium;line-height:125%;font-family:'Leelawadee UI';-inkscape-font-specification:'Leelawadee UI, Bold';text-align:center;letter-spacing:0px;word-spacing:0px;writing-mode:lr-tb;text-anchor:middle;display:inline;fill:#5e4a52;fill-opacity:1;stroke:none;stroke-width:1px;stroke-linecap:butt;stroke-linejoin:miter;stroke-opacity:1"
         inkscape:connector-curvature="0" />
      <path
         transform="translate(0,308.26772)"
         id="path9489"
         d="m 350.54102,300.51562 c -39.50583,2.7e-4 -71.53099,32.02542 -71.53125,71.53126 0.0258,0.74657 0.0621,1.49288 0.11132,2.23828 0.0858,0.021 0.17091,0.0418 0.25391,0.0488 0.36,0.0501 0.76154,-0.0216 1.10742,-0.19336 0.45762,-0.20454 0.88888,-0.63678 1.33008,-1.15624 0.5971,-0.72653 1.0806,-1.61765 1.54883,-2.60743 2.04303,-4.37964 3.25335,-7.2374 5.47851,-12.11133 0.60554,-1.32821 1.25187,-2.72343 1.98438,-4.10156 0.23305,-0.44865 0.48908,-0.92152 0.78711,-1.40039 0.29803,-0.47887 0.63807,-0.96329 1.0332,-1.4375 0.26526,-0.32581 0.61914,-0.66962 1.08008,-0.99219 0.36532,-0.26736 0.85847,-0.46883 1.46875,-0.55273 0.59948,-0.0429 1.14554,0.0693 1.60742,0.3125 0.5281,0.28607 0.9257,0.61775 1.20508,0.94336 0.42282,0.47569 0.77286,0.96541 1.07031,1.45117 0.29746,0.48577 0.54244,0.96704 0.75586,1.42188 0.71738,1.45794 1.31318,2.93438 1.88281,4.41406 0.25365,0.60168 0.47663,1.11243 0.76172,1.4043 0.1746,0.15342 0.28713,0.27561 0.29883,0.22851 -2.5e-4,0.0353 0.14035,-0.0237 0.35352,-0.082 0.30518,-0.10887 0.64785,-0.37408 1.05468,-0.70117 0.5585,-0.46458 1.07933,-1.01498 1.5918,-1.62305 0.51246,-0.60806 1.01696,-1.27443 1.54102,-1.97266 1.26158,-1.70589 2.44095,-3.50073 3.68164,-5.38476 1.25222,-1.90374 2.56023,-3.91085 3.93164,-5.86914 0.60426,-0.86577 1.23538,-1.74633 1.9082,-2.61719 0.67284,-0.87085 1.38729,-1.73333 2.15625,-2.56641 0.63147,-0.68552 1.33171,-1.36783 2.12305,-1.99804 0.64786,-0.52517 1.41554,-1.02038 2.31836,-1.40039 0.38469,-0.16643 0.80448,-0.29189 1.2539,-0.36719 0.44943,-0.0753 0.92801,-0.0987 1.42969,-0.0605 0.50781,0.0597 0.9898,0.18594 1.4375,0.3711 0.44771,0.18515 0.86117,0.42754 1.23242,0.7207 0.45265,0.3668 0.84091,0.76121 1.17188,1.16406 0.33097,0.40286 0.60475,0.81452 0.83008,1.21875 0.60834,1.04047 1.0663,2.10318 1.43945,3.13867 0.48952,1.34736 0.89115,2.7087 1.23633,4.07227 0.34518,1.36358 0.63546,2.73077 0.90039,4.09375 0.63818,3.25043 1.13081,6.51077 1.58789,9.81641 0.47048,3.39833 0.88217,6.72766 1.32226,10.16796 0.38802,3.02989 0.7824,6.09428 1.27735,9.10352 0.18992,1.13381 0.37908,2.25005 0.60156,3.33398 0.22248,1.08393 0.47943,2.13473 0.80664,3.13282 0.1003,0.28998 0.19636,0.4505 0.28906,0.6914 0.0713,-0.11458 0.0995,-0.12554 0.1836,-0.25586 0.66109,-1.14967 1.27701,-2.33936 1.86133,-3.56054 0.58431,-1.22118 1.13745,-2.47312 1.67382,-3.75196 0.46643,-1.11209 0.91838,-2.23877 1.36328,-3.36914 0.62335,-1.59287 1.2163,-3.20225 1.84375,-4.82226 0.62746,-1.62001 1.2875,-3.24984 2.04883,-4.88086 0.2528,-0.55736 0.53876,-1.14075 0.87305,-1.73047 0.3343,-0.58971 0.71828,-1.18665 1.17383,-1.77344 0.33115,-0.43695 0.78097,-0.89508 1.37109,-1.32226 0.24913,-0.18623 0.5396,-0.34564 0.86719,-0.47071 0.32759,-0.12506 0.69375,-0.21407 1.09375,-0.26367 0.413,-0.0219 0.80103,0.009 1.16015,0.0879 0.35912,0.0785 0.68923,0.20412 0.98438,0.3711 0.72176,0.41029 1.25883,0.88313 1.63867,1.34375 0.61961,0.72584 1.12887,1.48109 1.55664,2.23047 0.42777,0.74937 0.77471,1.49249 1.07813,2.19531 0.66047,1.44423 1.29452,2.84866 1.96679,4.17187 0.67228,1.32322 1.38245,2.56605 2.20118,3.69336 0.52047,0.68077 0.94369,1.2469 1.3789,1.51172 0.12671,0.0484 0.21496,0.10517 0.25196,0.13867 0.0674,-0.0673 0.21185,-0.23929 0.44921,-0.44531 0.2657,-0.30514 0.50272,-0.67877 0.73047,-1.10156 0.22776,-0.4228 0.44634,-0.89496 0.67383,-1.39258 0.39823,-0.90137 0.75681,-1.83108 1.08594,-2.78125 0.32914,-0.95017 0.62847,-1.91952 0.9082,-2.90234 0.55946,-1.96565 1.03955,-3.9812 1.51953,-5.98047 0.24989,-1.07365 0.5247,-2.16345 0.85547,-3.25391 0.33079,-1.09044 0.71657,-2.18134 1.19531,-3.26172 0.20967,-0.56485 0.513,-1.18437 0.93946,-1.79883 0.42647,-0.61446 0.97703,-1.22339 1.6875,-1.77343 0.26015,-0.18484 0.54813,-0.33812 0.86133,-0.45703 0.3132,-0.11893 0.65085,-0.20395 1.00976,-0.24805 0.67324,-0.0523 1.27944,0.0365 1.79297,0.23047 0.56015,0.22037 1.04512,0.48094 1.46289,0.75586 0.41778,0.27491 0.76889,0.56388 1.0625,0.83593 0.72386,0.61828 1.30654,1.18821 1.87695,1.65039 0.55344,0.40459 0.94352,0.73724 1.22852,0.76954 0.0939,0.0201 0.16479,0.0364 0.18359,0.0254 0.0269,0.0121 0.1081,-0.0376 0.22461,-0.10547 0.26205,-0.13674 0.49656,-0.42169 0.73438,-0.79492 0.23781,-0.37324 0.47946,-0.83633 0.7539,-1.33008 0.83646,-1.70053 1.53228,-3.54343 2.21289,-5.39453 0.86072,-2.3495 1.67407,-4.75856 2.46094,-7.0918 0.90272,-2.67982 1.751,-5.23538 2.63086,-7.73828 0.87987,-2.5029 1.79099,-4.95286 2.8125,-7.41602 0.43929,-1.06233 0.89305,-2.11048 1.38281,-3.14062 0.19209,-0.40404 0.39558,-0.80312 0.59961,-1.20117 -13.32588,-12.84235 -31.11029,-20.0204 -49.61718,-20.0254 z m 16.28125,75.36719 c -0.005,0.005 -0.0136,0.0116 -0.0176,0.0156 0.0349,0.0117 0.0433,0.008 0.0176,-0.0156 z m -0.0176,0.0156 c -0.01,-0.003 -0.0116,-8.2e-4 -0.0274,-0.008 -0.01,0.0352 0.003,0.03 0.0274,0.008 z m 72.08984,-22.98633 0,38.26953 18.51758,0 0,-38.26953 -18.51758,0 z"
         style="font-style:normal;font-variant:normal;font-weight:bold;font-stretch:normal;font-size:medium;line-height:125%;font-family:'Leelawadee UI';-inkscape-font-specification:'Leelawadee UI, Bold';text-align:center;letter-spacing:0px;word-spacing:0px;writing-mode:lr-tb;text-anchor:middle;display:inline;fill:#ff5e00;fill-opacity:1;stroke:none;stroke-width:1px;stroke-linecap:butt;stroke-linejoin:miter;stroke-opacity:1"
         inkscape:connector-curvature="0" />
      <path
         style="opacity:1;fill:#3faeca;fill-opacity:1;fill-rule:nonzero;stroke:none;stroke-width:2;stroke-linejoin:round;stroke-miterlimit:4;stroke-dasharray:none;stroke-opacity:1"
         d="m 402.7041,631.49811 c 12.4122,13.22791 19.3354,30.67736 19.36842,48.81679 -0.01,1.31955 -0.0565,2.63857 -0.13944,3.95555 -0.34031,-0.51686 -0.67166,-1.06283 -1.00619,-1.65124 -0.92805,-1.65413 -1.73547,-3.40989 -2.58219,-5.35297 -1.31594,-3.02547 -3.81082,-9.29568 -5.50746,-13.00324 -0.419,-0.9227 -0.90924,-1.89088 -1.53688,-2.82997 -0.18798,-0.29761 -0.4153,-0.60909 -0.69119,-0.91791 -0.27589,-0.30883 -0.60043,-0.61449 -0.98412,-0.89885 -0.26886,-0.21366 -0.59842,-0.38045 -0.9791,-0.48353 -0.3807,-0.10309 -0.81216,-0.14198 -1.28709,-0.0983 l -8.4e-4,0 c -0.44466,0.10283 -0.83067,0.25973 -1.15566,0.45344 -0.325,0.19371 -0.58872,0.4238 -0.7875,0.67213 -0.55101,0.61744 -0.93698,1.26177 -1.21887,1.8589 -0.38976,0.79179 -0.69895,1.59021 -0.96606,2.37452 -0.69215,2.02203 -1.20082,4.06053 -1.68334,6.13646 -0.85838,3.67669 -2.36171,11.09447 -3.31451,15.03067 -0.56508,2.33133 -1.18528,4.69183 -1.9562,6.9711 -0.3166,0.92383 -0.64658,1.83547 -1.01522,2.70759 -0.36864,0.87211 -0.77655,1.70435 -1.24896,2.46883 -0.33008,0.49572 -0.64378,0.96486 -0.96105,1.34928 -0.31726,0.38441 -0.63806,0.68454 -0.9811,0.84167 -0.3287,0.19963 -0.79015,0.26053 -1.17975,0.16451 -0.50747,-0.0831 -1.09261,-0.44441 -1.79369,-0.87577 -0.72867,-0.47569 -1.46198,-1.05194 -2.34744,-1.66027 -0.38155,-0.2758 -0.81196,-0.55639 -1.29811,-0.81558 -0.48617,-0.25921 -1.02788,-0.49604 -1.63118,-0.68317 -0.60902,-0.17874 -1.25086,-0.24161 -1.89802,-0.17756 -0.64716,0.064 -1.29963,0.25398 -1.93012,0.57883 -0.78102,0.47867 -1.42147,1.04771 -1.94216,1.65024 -0.52068,0.60252 -0.92195,1.23957 -1.22588,1.85287 -0.58915,1.07103 -1.07343,2.16678 -1.48973,3.26837 -0.4163,1.10158 -0.76427,2.20821 -1.07942,3.30046 -0.59989,2.01222 -1.20429,4.03913 -1.89902,6.00003 -0.34737,0.98045 -0.71715,1.94461 -1.12056,2.88213 -0.40342,0.93754 -0.84018,1.84809 -1.32118,2.72264 -0.28193,0.49931 -0.55748,0.97286 -0.84368,1.39643 -0.2862,0.42356 -0.58337,0.79746 -0.90587,1.09647 -0.43063,0.35644 -0.78253,0.64767 -1.0062,0.61796 -0.16597,0.0772 -0.50784,-0.0617 -0.90586,-0.24377 -0.2957,-0.15121 -0.58949,-0.37622 -0.88983,-0.64906 -0.30034,-0.27283 -0.60736,-0.59406 -0.93195,-0.94198 -0.98991,-1.09465 -1.87222,-2.33101 -2.71461,-3.6576 -0.84239,-1.32659 -1.64409,-2.74374 -2.47485,-4.20333 -0.39577,-0.72976 -0.84664,-1.49037 -1.38138,-2.2401 -0.53473,-0.74974 -1.15366,-1.48903 -1.88698,-2.17791 -0.4901,-0.46427 -1.11427,-0.903 -1.88197,-1.24796 -0.3229,-0.1427 -0.66882,-0.24872 -1.03327,-0.31399 -0.36447,-0.0653 -0.74754,-0.0891 -1.14463,-0.0682 -0.3854,0.0341 -0.74987,0.10585 -1.09047,0.21167 -0.34059,0.10582 -0.65756,0.24488 -0.947,0.41231 l -8.4e-4,0 c -0.64919,0.37391 -1.17997,0.80714 -1.60609,1.25096 -0.54555,0.56425 -1.01821,1.15199 -1.43555,1.74253 -0.41733,0.59053 -0.77975,1.18383 -1.10551,1.75858 -0.9406,1.62086 -1.76536,3.25452 -2.54908,4.88047 -0.78372,1.62596 -1.52629,3.24482 -2.3013,4.83734 -0.0558,0.11405 -0.11154,0.2272 -0.16753,0.34108 -0.90486,1.84042 -1.82275,3.63844 -2.79486,5.36702 -0.97211,1.72858 -1.99881,3.38869 -3.11989,4.95572 -0.39779,0.50996 -0.68202,0.84766 -0.96306,1.05936 -0.25667,-0.33783 -0.47532,-0.82528 -0.72931,-1.43355 -0.38398,-0.96661 -0.68708,-1.99906 -0.95001,-3.07375 -0.26293,-1.07469 -0.48523,-2.19208 -0.71026,-3.32755 -0.58029,-2.99225 -1.03882,-6.05076 -1.48671,-9.07979 -0.50871,-3.44549 -0.97704,-6.76338 -1.51781,-10.16825 -0.52572,-3.31498 -1.09547,-6.58426 -1.83382,-9.83619 -0.30904,-1.37624 -0.64817,-2.75679 -1.05333,-4.12909 -0.40517,-1.37229 -0.87688,-2.73591 -1.4486,-4.07893 -0.44766,-1.05835 -0.99449,-2.13308 -1.7044,-3.16102 -0.28221,-0.42074 -0.61302,-0.83555 -0.99717,-1.2299 -0.38414,-0.39435 -0.82183,-0.76787 -1.31717,-1.1025 -0.3412,-0.23684 -0.73156,-0.44885 -1.16671,-0.61896 -0.43514,-0.17012 -0.91581,-0.29793 -1.43856,-0.36918 -0.4535,-0.0454 -0.90327,-0.0236 -1.34125,0.0632 -0.43797,0.0868 -0.86313,0.23866 -1.26601,0.45243 -0.41094,0.23379 -0.77431,0.49729 -1.08946,0.77847 -0.31515,0.28119 -0.58263,0.58073 -0.80656,0.88481 -0.5528,0.72477 -0.96976,1.46962 -1.2951,2.18492 -0.41235,0.89793 -0.75005,1.80281 -1.03629,2.69856 -0.28623,0.89575 -0.52139,1.78251 -0.73031,2.64238 -0.49489,2.00167 -0.88412,3.99862 -1.24696,5.91978 -0.35478,1.8719 -0.66909,3.64219 -1.05735,5.39008 -0.16185,0.72641 -0.32703,1.42078 -0.52266,2.0806 -0.0882,0.28887 -0.1826,0.49875 -0.27085,0.74436 -0.20387,-0.32997 -0.40839,-0.6283 -0.61696,-1.03528 -0.73987,-1.49383 -1.51497,-2.98187 -2.43171,-4.42804 -0.29074,-0.47579 -0.61823,-0.96833 -1.00218,-1.45261 -0.38395,-0.48427 -0.8237,-0.95963 -1.33623,-1.40445 -0.35428,-0.33354 -0.79503,-0.61303 -1.30615,-0.80656 -0.51112,-0.19353 -1.09356,-0.3024 -1.73249,-0.29493 -0.64326,0.092 -1.20222,0.2821 -1.67833,0.52767 -0.47611,0.24557 -0.86868,0.54768 -1.17572,0.86675 -0.56592,0.5295 -1.07918,1.09238 -1.54992,1.6733 -0.47073,0.58091 -0.89926,1.17858 -1.29611,1.77864 -0.79369,1.20013 -1.45975,2.40693 -2.08561,3.49007 -1.82553,3.07817 -3.13526,5.36234 -4.5083,7.71346 -3.86449,-8.06868 -6.1811,-16.79069 -6.82965,-25.71354 0.34725,0.0346 0.69595,0.042 1.0413,-0.003 0.44025,-0.0574 0.87504,-0.17967 1.29009,-0.36516 0.47945,-0.22459 0.91309,-0.50271 1.30413,-0.81558 0.39105,-0.31288 0.73867,-0.66035 1.04331,-1.02626 0.41893,-0.49137 0.79186,-1.01008 1.12858,-1.54389 0.33673,-0.53382 0.63772,-1.0836 0.91189,-1.6392 2.07296,-4.13565 3.58953,-7.4401 5.79237,-11.98601 0.63137,-1.30121 1.27727,-2.61986 1.97527,-3.86325 0.48037,-0.83721 0.92209,-1.61386 1.43655,-2.17289 0.10605,-0.11045 0.16514,-0.15444 0.23775,-0.21869 0.023,0.0237 0.0146,0.0148 0.0452,0.0441 0.43011,0.45131 0.76305,1.17395 1.18476,2.02241 0.61063,1.29366 1.13323,2.67167 1.66929,4.1301 0.13931,0.40638 0.31726,0.83235 0.54573,1.26501 0.22847,0.43265 0.50806,0.87086 0.8517,1.30012 0.24796,0.3199 0.55874,0.61462 0.93096,0.86374 0.37221,0.24912 0.80475,0.45327 1.2951,0.59589 0.47068,0.0952 0.92002,0.11817 1.33925,0.0793 0.41924,-0.0389 0.80923,-0.14019 1.15767,-0.29093 0.83534,-0.34201 1.52135,-0.79787 2.07759,-1.27303 0.76181,-0.63527 1.44273,-1.32195 2.06956,-2.03044 0.62684,-0.70848 1.20029,-1.43948 1.74353,-2.16285 1.3714,-1.80119 2.62312,-3.64158 3.88833,-5.51048 1.28591,-1.89748 2.59668,-3.8573 3.93448,-5.71713 0.59787,-0.82841 1.20159,-1.64939 1.82378,-2.43873 0.62218,-0.78934 1.2627,-1.54815 1.93413,-2.25314 0.5495,-0.57557 1.09883,-1.10555 1.66829,-1.54189 0.47725,-0.35665 0.91959,-0.65401 1.33624,-0.80556 0.33227,-0.11095 0.61508,-0.18621 0.79251,-0.14145 0.15915,0.002 0.37425,0.11612 0.58586,0.27086 0.29377,0.19772 0.57266,0.62974 0.90888,1.16369 0.41037,0.69741 0.74227,1.51366 1.06437,2.40162 0.41809,1.16355 0.76158,2.37318 1.06438,3.62249 0.30279,1.2493 0.56444,2.53792 0.81759,3.86023 0.59105,3.12067 1.0501,6.29656 1.48471,9.56734 0.44592,3.36044 0.83689,6.66464 1.26501,10.12811 0.37509,3.03809 0.76819,6.15978 1.27103,9.28244 0.1817,1.15002 0.37804,2.33466 0.62599,3.53722 0.24794,1.20256 0.54678,2.42321 0.93396,3.64455 0.23825,0.78895 0.58175,1.68343 1.12958,2.60627 0.19792,0.34109 0.48509,0.7172 0.87778,1.1035 0.3176,0.32825 0.7843,0.61939 1.39543,0.83565 0.3056,0.0884 0.60822,0.13367 0.90487,0.13743 0.29664,0.004 0.58709,-0.0341 0.86775,-0.11336 0.62203,-0.19813 1.0949,-0.46318 1.4185,-0.75339 0.47551,-0.4148 0.86421,-0.84376 1.18175,-1.261 0.31753,-0.41723 0.56415,-0.82237 0.75639,-1.19478 0.72591,-1.26852 1.39633,-2.56141 2.02543,-3.87028 0.62909,-1.30887 1.21589,-2.63481 1.77663,-3.96958 0.48768,-1.16087 0.95305,-2.32257 1.40345,-3.47703 0.64953,-1.65554 1.24462,-3.273 1.84987,-4.84637 0.60525,-1.57336 1.22011,-3.10281 1.91206,-4.58052 0.49374,-1.02298 0.92659,-1.92511 1.46063,-2.57015 0.1142,-0.13159 0.16992,-0.17637 0.24377,-0.2518 0.0641,0.0619 0.0889,0.0729 0.19462,0.17656 0.36163,0.38273 0.67883,0.86863 0.98312,1.42251 0.30428,0.55388 0.59665,1.17502 0.90888,1.82779 0.65226,1.44633 1.32264,2.91671 2.07859,4.37087 0.75596,1.45416 1.59663,2.89255 2.58721,4.27455 0.29546,0.43031 0.64151,0.87556 1.05032,1.31216 0.40881,0.4366 0.87983,0.8642 1.42753,1.259 0.41386,0.32215 0.91725,0.5693 1.49173,0.71326 0.57448,0.14395 1.22026,0.18569 1.92009,0.0973 0.71693,-0.19774 1.32478,-0.49003 1.82278,-0.83364 0.498,-0.34361 0.88644,-0.73906 1.1677,-1.14663 0.47083,-0.59483 0.8636,-1.20484 1.1978,-1.80975 0.33421,-0.6049 0.60954,-1.20462 0.84669,-1.77863 0.44172,-1.03591 0.83609,-2.08301 1.19378,-3.13394 0.35771,-1.05092 0.67913,-2.10507 0.97309,-3.15601 0.58791,-2.10188 1.06827,-4.1887 1.52283,-6.20066 0.2417,-1.0364 0.48431,-2.03951 0.76041,-2.9965 0.27609,-0.957 0.58637,-1.86841 0.96606,-2.72364 0.24399,-0.45809 0.43413,-0.87256 0.60792,-1.18877 0.17381,-0.31621 0.33129,-0.53445 0.50962,-0.59889 0.0113,-0.005 0.0124,-0.009 0.0181,-0.013 -0.003,3.3e-4 -0.004,0.004 0.0612,0.0151 0.29117,0.0514 0.68969,0.40783 1.25297,0.83565 0.59616,0.49675 1.20619,1.07759 1.96925,1.68935 0.32526,0.28252 0.71035,0.56779 1.16168,0.82662 0.45133,0.25885 0.96861,0.49054 1.55593,0.66812 0.56659,0.15539 1.18916,0.18966 1.83984,0.0833 0.35751,-0.0711 0.69061,-0.17661 0.99716,-0.31198 0.30656,-0.13538 0.58685,-0.3003 0.83766,-0.48855 0.71531,-0.56599 1.28015,-1.19639 1.72948,-1.83582 0.44934,-0.63945 0.78245,-1.28726 1.03529,-1.88899 0.92292,-1.95487 1.64937,-3.94216 2.31133,-5.83852 0.85278,-2.43342 1.64096,-4.88697 2.39258,-7.23594 0.86888,-2.71188 1.67188,-5.26463 2.49291,-7.73954 0.82103,-2.47491 1.66091,-4.87232 2.60425,-7.27206 0.40849,-1.03582 0.81758,-2.03582 1.24997,-2.99951 0.0142,-0.0318 0.0299,-0.0616 0.0441,-0.0933 z m -23.53562,31.58616 c 8.4e-4,-1.2e-4 -0.0315,-0.008 -0.0211,-0.005 0.037,-0.0135 0.036,-0.006 0.0211,0.005 z"
         id="path9495"
         inkscape:connector-curvature="0"
         sodipodi:nodetypes="cccccccscsccsccccccscsccccccscscscsscscccscscsccccscccscsccscccsccccsccscscscsccscccccccscscscsscccccscsccccccccccsccccscccscccccccsccccscccccccscsscsccccscscscscscscsscscsccccccccscscccscscccc" />
    </g>
  </g>
</svg>
